<svg width="123" height="122" viewBox="0 0 123 122" fill="none" xmlns="http://www.w3.org/2000/svg">
<path fill-rule="evenodd" clip-rule="evenodd" d="M15.5829 67.1684H24.3435C36.1614 67.1684 46.9216 62.3207 54.7349 54.5047C62.5483 46.6913 67.3989 35.9325 67.3989 24.1133V17.5438H109.221V24.1133C109.221 47.4776 99.6795 68.7014 84.3055 84.0753C68.9302 99.4481 47.7052 108.992 24.3435 108.992H15.5829V67.1684Z" fill="#B2B6B7"/>
<path fill-rule="evenodd" clip-rule="evenodd" d="M22.453 108.992V67.1684H24.3435C36.1613 67.1684 46.9215 62.3207 54.7349 54.5047C62.5483 46.6913 67.3989 35.9325 67.3989 24.1133V22.2215H109.221V24.1133C109.221 47.4776 99.6795 68.7014 84.3055 84.0753C68.9302 99.4481 47.7051 108.992 24.3435 108.992H22.453Z" fill="#B2B6B7"/>
<path fill-rule="evenodd" clip-rule="evenodd" d="M24.9621 106.483V82.628C56.805 82.628 82.8567 56.5747 82.8567 24.7319H106.715V24.1133C106.715 46.0183 98.0085 66.8239 82.5308 82.3006C67.0543 97.7767 46.2483 106.483 24.3435 106.483H24.9621Z" fill="#D5D7D8"/>
<path fill-rule="evenodd" clip-rule="evenodd" d="M87.6501 24.7319H103.14V25.6366C103.14 68.1371 68.3674 102.911 25.8654 102.911H24.9621V87.42H27.7107C60.6764 87.42 87.6501 60.4473 87.6501 27.4805V24.7319Z" fill="#ECEFEE"/>
<path fill-rule="evenodd" clip-rule="evenodd" d="M93.2019 33.9861C93.0675 35.1316 93.887 36.1719 95.0324 36.3063C96.1779 36.442 97.2169 35.6212 97.3526 34.4757C97.5163 33.1134 97.64 31.7018 97.7265 30.249C97.8116 28.7936 97.8569 27.3754 97.8569 26.0024C97.8569 24.849 96.9203 23.9137 95.7655 23.9137C94.6107 23.9137 93.6741 24.849 93.6741 26.0024C93.6741 27.4007 93.6369 28.735 93.5597 30.0056C93.4839 31.3107 93.3642 32.6371 93.2019 33.9861ZM74.4287 73.0647C73.6265 73.891 73.6438 75.2121 74.4686 76.0155C75.2948 76.8168 76.6145 76.8007 77.4181 75.976C81.211 72.0909 84.5703 67.7791 87.412 63.1227C90.2085 58.5422 92.51 53.6145 94.2342 48.4156L94.6347 47.1954L95.0032 45.9612C95.3225 44.8542 94.6866 43.6995 93.5823 43.3798C92.4768 43.0582 91.3193 43.6938 91 44.7996L90.6475 45.9555L90.2803 47.1076C88.6639 51.977 86.4954 56.6172 83.8505 60.9519C81.1711 65.3391 78.0048 69.4061 74.4287 73.0647Z" fill="white"/>
<path fill-rule="evenodd" clip-rule="evenodd" d="M116.489 0H60.1323C56.9819 0 54.4036 2.57829 54.4036 5.72732V16.4968C54.4036 19.6459 56.9819 22.2215 60.1323 22.2215H116.489C119.641 22.2215 122.216 19.6459 122.216 16.4968V5.72732C122.216 2.57829 119.641 0 116.489 0Z" fill="#252E2F"/>
<path fill-rule="evenodd" clip-rule="evenodd" d="M116.489 2.18187C118.435 2.18187 120.034 3.78234 120.034 5.72737V16.4969C120.034 18.4406 118.435 20.041 116.489 20.041H60.1323C58.1859 20.041 56.5855 18.4406 56.5855 16.4969V5.72737C56.5855 3.78234 58.1859 2.18187 60.1323 2.18187H116.489Z" fill="#3F4E52"/>
<path fill-rule="evenodd" clip-rule="evenodd" d="M103.893 4.20536H75.6194C74.3343 4.20536 73.2806 5.06745 73.2806 6.12245V11.8165C73.2806 12.8675 74.3329 13.7296 75.6194 13.7296H103.893C105.178 13.7296 106.23 12.8702 106.23 11.8165V6.12245C106.23 5.06745 105.177 4.20536 103.893 4.20536Z" fill="#6E7B7E"/>
<path fill-rule="evenodd" clip-rule="evenodd" d="M61.8805 16.1057H118.544C119.077 16.1057 119.581 15.9859 120.035 15.7757V16.5713C120.035 18.5283 118.427 20.1354 116.472 20.1354H59.8064C57.8507 20.1354 56.2409 18.5283 56.2409 16.5713V5.7446C56.2409 4.33838 57.0725 3.11176 58.2658 2.53304L58.3151 2.51176V12.5402C58.3151 14.4972 59.9235 16.1057 61.8805 16.1057Z" fill="#252E2F"/>
<path fill-rule="evenodd" clip-rule="evenodd" d="M110.856 4.20536H116.095C117.066 4.20536 117.859 4.99827 117.859 5.96679V11.9682C117.859 12.938 117.065 13.7296 116.095 13.7296H110.856C109.888 13.7296 109.095 12.938 109.095 11.9682V5.96679C109.095 4.99827 109.886 4.20536 110.856 4.20536Z" fill="#6E7B7E"/>
<path fill-rule="evenodd" clip-rule="evenodd" d="M113.126 5.63685H115.487C115.926 5.63685 116.283 5.99606 116.283 6.43375V9.13843C116.283 9.57613 115.925 9.93533 115.487 9.93533H113.126C112.689 9.93533 112.332 9.57613 112.332 9.13843V6.43375C112.332 5.99606 112.687 5.63685 113.126 5.63685Z" fill="#8D9695"/>
<path fill-rule="evenodd" clip-rule="evenodd" d="M94.6373 5.63685H103.79C104.267 5.63685 104.656 6.02666 104.656 6.5016V9.06925C104.656 9.54553 104.267 9.93533 103.79 9.93533H94.6373C94.161 9.93533 93.7739 9.54553 93.7739 9.06925V6.5016C93.7739 6.02666 94.161 5.63685 94.6373 5.63685Z" fill="#8D9695"/>
<path fill-rule="evenodd" clip-rule="evenodd" d="M89.4142 5.63685H91.7783C92.2147 5.63685 92.5726 5.99606 92.5726 6.43375V9.13843C92.5726 9.57613 92.212 9.93533 91.7783 9.93533H89.4142C88.9778 9.93533 88.62 9.57613 88.62 9.13843V6.43375C88.62 5.99606 88.9778 5.63685 89.4142 5.63685Z" fill="#8D9695"/>
<path fill-rule="evenodd" clip-rule="evenodd" d="M0 59.9022V116.26C0 119.412 2.57561 121.986 5.7273 121.986H16.4942C19.6459 121.986 22.2241 119.412 22.2241 116.26V59.9022C22.2241 56.7502 19.6445 54.1747 16.4942 54.1747H5.7273C2.57561 54.1747 0 56.7518 0 59.9022Z" fill="#252E2F"/>
<path fill-rule="evenodd" clip-rule="evenodd" d="M2.18054 59.9022C2.18054 57.9554 3.78099 56.3554 5.72735 56.3554H16.4942C18.4419 56.3554 20.041 57.957 20.041 59.9022V116.26C20.041 118.205 18.4419 119.806 16.4942 119.806H5.72735C3.78099 119.806 2.18054 118.207 2.18054 116.26V59.9022Z" fill="#3F4E52"/>
<path fill-rule="evenodd" clip-rule="evenodd" d="M4.2067 72.5008V100.773C4.2067 102.058 5.06747 103.11 6.11981 103.11H11.8152C12.8702 103.11 13.7296 102.059 13.7296 100.773V72.5008C13.7296 71.2116 12.8702 70.1607 11.8152 70.1607H6.11981C5.06881 70.1607 4.2067 71.2116 4.2067 72.5008Z" fill="#6E7B7E"/>
<path fill-rule="evenodd" clip-rule="evenodd" d="M16.1057 114.512V57.8478C16.1057 57.3172 15.986 56.8101 15.7744 56.3553H16.57C18.5283 56.3553 20.1368 57.9647 20.1368 59.9208V116.586C20.1368 118.542 18.5283 120.151 16.57 120.151H5.74462C4.34106 120.151 3.1118 119.32 2.53308 118.125L2.51044 118.077H12.5403C14.4959 118.077 16.1057 116.469 16.1057 114.512Z" fill="#252E2F"/>
<path fill-rule="evenodd" clip-rule="evenodd" d="M4.2067 65.536V60.2946C4.2067 59.3259 4.99961 58.5328 5.96813 58.5328H11.9682C12.9381 58.5328 13.7296 59.3259 13.7296 60.2946V65.536C13.7296 66.5032 12.9367 67.2963 11.9682 67.2963H5.96813C4.99961 67.2963 4.2067 66.5048 4.2067 65.536Z" fill="#6E7B7E"/>
<path fill-rule="evenodd" clip-rule="evenodd" d="M5.63687 63.2666V60.901C5.63687 60.466 5.99607 60.1094 6.43244 60.1094H9.1398C9.57617 60.1094 9.93404 60.466 9.93404 60.901V63.2666C9.93404 63.7031 9.57617 64.0596 9.1398 64.0596H6.43244C5.99607 64.0596 5.63687 63.7031 5.63687 63.2666Z" fill="#8D9695"/>
<path fill-rule="evenodd" clip-rule="evenodd" d="M5.63687 81.7548V72.5979C5.63687 72.124 6.02535 71.7374 6.50162 71.7374H9.07062C9.5469 71.7374 9.93404 72.124 9.93404 72.5979V81.7548C9.93404 82.2314 9.54423 82.6185 9.07062 82.6185H6.50162C6.02668 82.6185 5.63687 82.2314 5.63687 81.7548Z" fill="#8D9695"/>
<path fill-rule="evenodd" clip-rule="evenodd" d="M5.63687 86.9781V84.6152C5.63687 84.1777 5.99607 83.8195 6.43244 83.8195H9.1398C9.57617 83.8195 9.93404 84.1791 9.93404 84.6152V86.9781C9.93404 87.4148 9.57617 87.7722 9.1398 87.7722H6.43244C5.99607 87.7722 5.63687 87.4157 5.63687 86.9781Z" fill="#8D9695"/>
</svg>
