<svg width="375" height="68" viewBox="0 0 375 68" fill="none" xmlns="http://www.w3.org/2000/svg">
<g id="body">
    <path fill-rule="evenodd" clip-rule="evenodd" d="M363.368 54.9H11.4094V12.9827H363.368V54.9Z" fill="#B2B6B7"/>
<path fill-rule="evenodd" clip-rule="evenodd" d="M344.008 52.3853H30.7707C27.7173 52.3853 25.2253 49.8893 25.2253 46.84V21.044C25.2253 17.9947 27.716 15.4987 30.7707 15.4987H344.008C347.061 15.4987 349.552 17.9947 349.552 21.044V46.84C349.552 49.8893 347.057 52.3853 344.008 52.3853Z" fill="#D5D7D8"/>
<path fill-rule="evenodd" clip-rule="evenodd" d="M344.211 32.648H30.5667C29.404 32.648 28.4454 31.6946 28.4454 30.528V20.6626C28.4454 19.4986 29.4027 18.544 30.5667 18.544H344.211C345.376 18.544 346.332 19.4986 346.332 20.6626V30.528C346.332 31.6933 345.372 32.648 344.211 32.648Z" fill="#B2B6B7"/>
<path fill-rule="evenodd" clip-rule="evenodd" d="M339.847 48.7827H34.9307C31.368 48.7827 28.4454 45.8667 28.4454 42.3V42.2987C28.4454 38.7333 31.3667 35.816 34.9307 35.816H339.847C343.411 35.816 346.332 38.7347 346.332 42.2987V42.3C346.332 45.8667 343.408 48.7827 339.847 48.7827Z" fill="#ECEFEE"/>
<path fill-rule="evenodd" clip-rule="evenodd" d="M337.107 47.1947H291.663C290.333 47.1947 289.247 46.1093 289.247 44.7773C289.247 43.4493 290.332 42.36 291.663 42.36H337.107C338.439 42.36 339.525 43.4493 339.525 44.7773C339.525 46.108 338.437 47.1947 337.107 47.1947Z" fill="white"/>
<path fill-rule="evenodd" clip-rule="evenodd" d="M266.803 47.1947H282.484C283.815 47.1947 284.903 46.1093 284.903 44.7773C284.903 43.4493 283.815 42.36 282.484 42.36H266.803C265.472 42.36 264.385 43.4493 264.385 44.7773C264.385 46.1093 265.472 47.1947 266.803 47.1947Z" fill="white"/>
</g>

<g id="left-out">
    <path fill-rule="evenodd" clip-rule="evenodd" d="M-2.47955e-05 62.2227V5.74C-2.47955e-05 2.58266 2.58398 7.62939e-06 5.74132 7.62939e-06H16.532C19.6893 7.62939e-06 22.2733 2.58266 22.2733 5.74V62.2227C22.2733 65.38 19.6893 67.9613 16.532 67.9613H5.74132C2.58265 67.9613 -2.47955e-05 65.38 -2.47955e-05 62.2227Z" fill="#252E2F"/>
<path fill-rule="evenodd" clip-rule="evenodd" d="M2.18667 62.2227C2.18667 64.172 3.79201 65.776 5.74134 65.776H16.532C18.4827 65.776 20.0867 64.172 20.0867 62.2227V5.74C20.0867 3.78933 18.484 2.188 16.532 2.188H5.74134C3.79068 2.188 2.18667 3.78933 2.18667 5.74V62.2227Z" fill="#3F4E52"/>
<path fill-rule="evenodd" clip-rule="evenodd" d="M4.21597 49.596V21.2613C4.21597 19.9733 5.07997 18.9173 6.13597 18.9173H11.8426C12.8986 18.9173 13.7626 19.9733 13.7626 21.2613V49.596C13.7626 50.8866 12.8986 51.9413 11.8426 51.9413H6.13597C5.07997 51.9413 4.21597 50.8866 4.21597 49.596Z" fill="#6E7B7E"/>
<path fill-rule="evenodd" clip-rule="evenodd" d="M16.1426 7.49198V64.2813C16.1426 64.8133 16.0226 65.32 15.8106 65.776H16.6093C18.5693 65.776 20.1813 64.164 20.1813 62.2027V5.41331C20.1813 3.45331 18.5706 1.83997 16.6093 1.83997H5.75862C4.34928 1.83997 3.11995 2.6733 2.53995 3.87064L2.51728 3.91865H12.5693C14.5293 3.91865 16.1426 5.53064 16.1426 7.49198Z" fill="#252E2F"/>
<path fill-rule="evenodd" clip-rule="evenodd" d="M4.21597 56.5773V61.8267C4.21597 62.7987 5.01064 63.5933 5.9813 63.5933H11.996C12.9666 63.5933 13.7626 62.7987 13.7626 61.8267V56.5773C13.7626 55.6053 12.968 54.8107 11.996 54.8107H5.9813C5.01064 54.8107 4.21597 55.6053 4.21597 56.5773Z" fill="#6E7B7E"/>
<path fill-rule="evenodd" clip-rule="evenodd" d="M5.65193 58.8506V61.2173C5.65193 61.6573 6.01059 62.016 6.44793 62.016H9.15994C9.59727 62.016 9.95593 61.6573 9.95593 61.2173V58.8506C9.95593 58.4133 9.5986 58.0546 9.15994 58.0546H6.44793C6.01059 58.0546 5.65193 58.4133 5.65193 58.8506Z" fill="#8D9695"/>
<path fill-rule="evenodd" clip-rule="evenodd" d="M5.65193 40.3199V49.4973C5.65193 49.9733 6.04126 50.3613 6.51726 50.3613H9.09194C9.5666 50.3613 9.95593 49.9733 9.95593 49.4973V40.3199C9.95593 39.8453 9.56927 39.4559 9.09194 39.4559H6.51726C6.04126 39.4559 5.65193 39.8453 5.65193 40.3199Z" fill="#8D9695"/>
<path fill-rule="evenodd" clip-rule="evenodd" d="M5.65193 35.0853V37.456C5.65193 37.8933 6.01059 38.2507 6.44793 38.2507H9.15994C9.59727 38.2507 9.95593 37.8933 9.95593 37.456V35.0853C9.95593 34.648 9.5986 34.2906 9.15994 34.2906H6.44793C6.01059 34.2906 5.65193 34.648 5.65193 35.0853Z" fill="#8D9695"/>
</g>

<g id="right-out">

<path fill-rule="evenodd" clip-rule="evenodd" d="M352.043 62.2227V5.74003C352.043 2.58269 354.627 3.8147e-05 357.783 3.8147e-05H368.576C371.732 3.8147e-05 374.315 2.58269 374.315 5.74003V62.2227C374.315 65.38 371.732 67.9614 368.576 67.9614H357.783C354.627 67.9614 352.043 65.38 352.043 62.2227Z" fill="#252E2F"/>
<path fill-rule="evenodd" clip-rule="evenodd" d="M354.229 62.2227C354.229 64.172 355.833 65.776 357.783 65.776H368.576C370.524 65.776 372.129 64.172 372.129 62.2227V5.74003C372.129 3.78936 370.525 2.18803 368.576 2.18803H357.783C355.833 2.18803 354.229 3.78936 354.229 5.74003V62.2227Z" fill="#3F4E52"/>
<path fill-rule="evenodd" clip-rule="evenodd" d="M356.259 49.596V21.2613C356.259 19.9733 357.123 18.9173 358.179 18.9173H363.885C364.94 18.9173 365.804 19.972 365.804 21.2613V49.596C365.804 50.8867 364.941 51.9413 363.885 51.9413H358.179C357.123 51.9413 356.259 50.8867 356.259 49.596Z" fill="#6E7B7E"/>
<path fill-rule="evenodd" clip-rule="evenodd" d="M368.184 7.49201V64.2813C368.184 64.8133 368.065 65.32 367.853 65.776H368.649C370.611 65.776 372.224 64.164 372.224 62.2027V5.41334C372.224 3.45334 370.612 1.84 368.649 1.84H357.799C356.391 1.84 355.161 2.67333 354.581 3.87067L354.56 3.91868H364.611C366.571 3.91868 368.184 5.53067 368.184 7.49201Z" fill="#252E2F"/>
<path fill-rule="evenodd" clip-rule="evenodd" d="M356.259 56.5774V61.8267C356.259 62.8 357.052 63.5934 358.023 63.5934H364.037C365.011 63.5934 365.804 62.7987 365.804 61.8267V56.5774C365.804 55.6054 365.011 54.8107 364.037 54.8107H358.023C357.052 54.8107 356.259 55.604 356.259 56.5774Z" fill="#6E7B7E"/>
<path fill-rule="evenodd" clip-rule="evenodd" d="M357.692 58.8507V61.2173C357.692 61.6573 358.052 62.016 358.489 62.016H361.203C361.64 62.016 361.999 61.6573 361.999 61.2173V58.8507C361.999 58.4133 361.64 58.0547 361.203 58.0547H358.489C358.051 58.0547 357.692 58.4133 357.692 58.8507Z" fill="#8D9695"/>
<path fill-rule="evenodd" clip-rule="evenodd" d="M357.692 40.32V49.4973C357.692 49.9733 358.083 50.3613 358.559 50.3613H361.132C361.609 50.3613 361.999 49.9733 361.999 49.4973V40.32C361.999 39.8453 361.609 39.456 361.132 39.456H358.559C358.083 39.456 357.692 39.844 357.692 40.32Z" fill="#8D9695"/>
<path fill-rule="evenodd" clip-rule="evenodd" d="M357.692 35.0854V37.456C357.692 37.8933 358.052 38.2507 358.489 38.2507H361.203C361.64 38.2507 361.999 37.8933 361.999 37.456V35.0854C361.999 34.648 361.64 34.2907 361.203 34.2907H358.489C358.051 34.2907 357.692 34.648 357.692 35.0854Z" fill="#8D9695"/>
</g>
</svg>
