<svg width="96" height="96" viewBox="0 0 96 96" fill="none" xmlns="http://www.w3.org/2000/svg">
<g clip-path="url(#clip0_29_4)">
<path d="M96 0H0V96H96V0Z" fill="white"/>
<path d="M51.5976 33.6568C48.285 22.9776 41.8083 21 41.8083 21C43.3904 22.6316 43.2915 28.1196 42.6489 31.2837C42.006 34.4479 39.7318 37.8593 37.408 36.5739C35.0842 35.2884 37.5563 31.9759 37.5563 31.9759C31.7221 35.5851 34.6392 39.5403 35.3809 43.0506C36.1226 46.561 34.0632 47.6047 30.8818 51.3072C20.9229 62.8971 32.1887 75.3003 41.5514 74.367C38.7662 72.3558 36.9518 69.0835 36.9518 65.3856C36.9518 62.3268 38.192 59.5578 40.197 57.5537C41.5879 54.859 43.2299 50.5749 43.4405 45.101C43.4405 45.101 44.2425 50.2854 43.0851 55.4755C43.7147 55.161 44.3782 54.9053 45.069 54.7144C46.8419 51.735 49.5826 45.7465 48.3495 38.6811C48.3495 38.6811 51.4695 46.3092 47.747 54.3191C47.84 54.3168 47.9321 54.312 48.0256 54.312H48.0258C48.4828 54.312 48.9324 54.3429 49.375 54.3967C52.2295 49.9188 54.3666 42.5835 51.5976 33.6568Z" fill="#0000FF"/>
<path d="M54.3474 50.5743L53.137 49.4696C52.6282 51.1507 51.9115 52.9114 50.915 54.6952C51.4323 54.8346 51.9332 55.0126 52.4176 55.2223C52.9499 54.7494 53.6134 54.422 54.3474 54.3041V50.5743ZM65.8367 45.6215C60.6949 38.3042 53.7236 36.7221 53.7236 36.7221C53.7236 36.7221 55.0914 41.7009 53.4976 48.1567L54.3476 48.9325V46.004C54.3476 45.6691 54.6191 45.3976 54.9539 45.3976C55.2888 45.3976 55.5603 45.6691 55.5603 46.004V48.9325L57.4594 47.1992C57.7067 46.9732 58.0901 46.9908 58.3161 47.2381C58.5418 47.4854 58.5244 47.8691 58.2771 48.0949L55.5603 50.5745V54.3043C56.5049 54.456 57.3355 54.9514 57.9152 55.6623L61.1436 53.7984L61.9328 50.2057C62.0048 49.8787 62.3283 49.6717 62.6551 49.7436C62.982 49.8154 63.189 50.1389 63.1172 50.4659L62.5656 52.9772L65.1017 51.513C65.3916 51.3456 65.7624 51.4449 65.93 51.735C66.0974 52.0249 65.9982 52.3958 65.7081 52.5633L63.1717 54.0276L65.6226 54.8056C65.9417 54.907 66.1184 55.2478 66.0172 55.5669C65.9352 55.8252 65.6965 55.9899 65.4394 55.9899C65.3786 55.9899 65.3168 55.9807 65.2559 55.9613L61.75 54.8483L58.5202 56.713C58.6818 57.1359 58.7744 57.5927 58.7744 58.0719C58.7744 58.551 58.6818 59.0079 58.5202 59.4307L61.75 61.2954L65.2559 60.1826C65.5748 60.0814 65.916 60.2579 66.0172 60.5772C66.1186 60.8963 65.9419 61.2373 65.6226 61.3386L63.1717 62.1166L65.7079 63.5808C65.9978 63.7482 66.0972 64.119 65.9298 64.4091C65.8175 64.6036 65.6138 64.7124 65.4041 64.7124C65.3012 64.7124 65.197 64.6863 65.1015 64.631L62.5654 63.1669L63.117 65.6782C63.1888 66.0054 62.982 66.3287 62.6549 66.4005C62.6109 66.4101 62.5671 66.4147 62.5241 66.4147C62.2455 66.4147 61.9946 66.2216 61.9324 65.9384L61.1433 62.3457L57.9714 60.5144C58.6931 61.9843 59.0988 63.6374 59.0988 65.3856C59.0988 68.9603 57.4035 72.1373 54.7746 74.1619C73.7093 72.2832 70.9775 52.9373 65.8367 45.6215ZM57.2629 59.2796C57.4528 58.9181 57.5617 58.5078 57.5617 58.0717C57.5617 56.6337 56.3918 55.4638 54.9539 55.4638C54.4672 55.4638 54.0128 55.6003 53.6224 55.8334C55.0828 56.6907 56.3298 57.8717 57.2629 59.2796Z" fill="#FF0000"/>
<path d="M48.0256 55.5592C42.5986 55.5592 38.1991 59.9587 38.1991 65.3856C38.1991 70.8127 42.5986 75.212 48.0254 75.212C53.4523 75.212 57.852 70.8125 57.852 65.3856C57.852 59.9587 53.4525 55.5592 48.0256 55.5592ZM51.2042 71.924C49.8164 72.3834 48.4169 72.5518 47.5433 71.5899C47.5433 71.5899 47.2021 71.189 47.6652 71.0024C48.1283 70.8156 48.7164 70.114 48.6055 69.1716C48.5682 68.8548 48.4759 68.5452 48.3701 68.2723C49.5557 68.2262 50.5326 67.369 50.7572 66.2379C51.4905 66.7711 52.5578 67.6583 53.0712 68.6216C53.8956 70.1681 52.592 71.4647 51.2042 71.924ZM53.7576 67.7706C53.7576 67.7706 53.2709 67.9713 53.2365 67.473C53.2019 66.9748 52.7164 66.1987 51.7858 66.0131C51.4503 65.946 51.1034 65.9418 50.7954 65.9631C50.8018 65.8898 50.8066 65.8161 50.8066 65.741C50.8066 64.699 50.1776 63.8047 49.2792 63.4145C49.9383 63.8319 50.3772 64.5658 50.3772 65.4035C50.3772 66.7041 49.323 67.7583 48.0224 67.7583C46.9322 67.7583 46.0179 67.0166 45.7495 66.0111C45.8775 67.2196 46.8544 68.1732 48.0727 68.2675C47.7916 69.1296 47.2784 70.4152 46.5223 71.1997C45.3059 72.4618 43.6701 71.6225 42.8044 70.4446C41.9386 69.2667 41.3459 67.9878 41.9909 66.8596C41.9909 66.8596 42.2666 66.4113 42.5874 66.7939C42.9081 67.1766 43.7571 67.5191 44.6192 67.1224C45.0636 66.9179 45.454 66.5954 45.7285 66.3306C44.8857 66.3554 43.1905 66.3247 42.046 65.7679C40.4698 65.001 40.7625 63.186 41.6153 61.9987C42.468 60.8114 43.5011 59.8524 44.7735 60.1173C44.7735 60.1173 45.2852 60.2412 45.0202 60.6643C44.7553 61.0877 44.6921 62.0008 45.3357 62.6982C45.6677 63.0578 46.0949 63.3293 46.4316 63.5086C46.1475 62.7147 45.6531 61.0931 45.829 59.8324C46.0711 58.0965 47.8878 57.8139 49.2805 58.258C50.6733 58.7021 51.9046 59.3883 52.0459 60.6801C52.0459 60.6801 52.0862 61.2048 51.6018 61.0838C51.1174 60.9627 50.2292 61.1848 49.765 62.0124C49.5255 62.4392 49.3994 62.9293 49.3328 63.3049C50.0002 62.7894 51.3897 61.8179 52.6428 61.5957C54.3685 61.2897 55.1987 62.9301 55.2068 64.3918C55.2147 65.8541 54.9424 67.2371 53.7576 67.7706Z" fill="#01446A"/>
</g>
<defs>
<clipPath id="clip0_29_4">
<rect width="96" height="96" fill="white"/>
</clipPath>
</defs>
</svg>
<svg width="96" height="96" viewBox="0 0 96 96" fill="none" xmlns="http://www.w3.org/2000/svg">
<g clip-path="url(#clip0_29_4)">
<path d="M96 0H0V96H96V0Z" fill="white"/>
<path d="M51.5976 33.6568C48.285 22.9776 41.8083 21 41.8083 21C43.3904 22.6316 43.2915 28.1196 42.6489 31.2837C42.006 34.4479 39.7318 37.8593 37.408 36.5739C35.0842 35.2884 37.5563 31.9759 37.5563 31.9759C31.7221 35.5851 34.6392 39.5403 35.3809 43.0506C36.1226 46.561 34.0632 47.6047 30.8818 51.3072C20.9229 62.8971 32.1887 75.3003 41.5514 74.367C38.7662 72.3558 36.9518 69.0835 36.9518 65.3856C36.9518 62.3268 38.192 59.5578 40.197 57.5537C41.5879 54.859 43.2299 50.5749 43.4405 45.101C43.4405 45.101 44.2425 50.2854 43.0851 55.4755C43.7147 55.161 44.3782 54.9053 45.069 54.7144C46.8419 51.735 49.5826 45.7465 48.3495 38.6811C48.3495 38.6811 51.4695 46.3092 47.747 54.3191C47.84 54.3168 47.9321 54.312 48.0256 54.312H48.0258C48.4828 54.312 48.9324 54.3429 49.375 54.3967C52.2295 49.9188 54.3666 42.5835 51.5976 33.6568Z" fill="#0000FF"/>
<path d="M54.3474 50.5743L53.137 49.4696C52.6282 51.1507 51.9115 52.9114 50.915 54.6952C51.4323 54.8346 51.9332 55.0126 52.4176 55.2223C52.9499 54.7494 53.6134 54.422 54.3474 54.3041V50.5743ZM65.8367 45.6215C60.6949 38.3042 53.7236 36.7221 53.7236 36.7221C53.7236 36.7221 55.0914 41.7009 53.4976 48.1567L54.3476 48.9325V46.004C54.3476 45.6691 54.6191 45.3976 54.9539 45.3976C55.2888 45.3976 55.5603 45.6691 55.5603 46.004V48.9325L57.4594 47.1992C57.7067 46.9732 58.0901 46.9908 58.3161 47.2381C58.5418 47.4854 58.5244 47.8691 58.2771 48.0949L55.5603 50.5745V54.3043C56.5049 54.456 57.3355 54.9514 57.9152 55.6623L61.1436 53.7984L61.9328 50.2057C62.0048 49.8787 62.3283 49.6717 62.6551 49.7436C62.982 49.8154 63.189 50.1389 63.1172 50.4659L62.5656 52.9772L65.1017 51.513C65.3916 51.3456 65.7624 51.4449 65.93 51.735C66.0974 52.0249 65.9982 52.3958 65.7081 52.5633L63.1717 54.0276L65.6226 54.8056C65.9417 54.907 66.1184 55.2478 66.0172 55.5669C65.9352 55.8252 65.6965 55.9899 65.4394 55.9899C65.3786 55.9899 65.3168 55.9807 65.2559 55.9613L61.75 54.8483L58.5202 56.713C58.6818 57.1359 58.7744 57.5927 58.7744 58.0719C58.7744 58.551 58.6818 59.0079 58.5202 59.4307L61.75 61.2954L65.2559 60.1826C65.5748 60.0814 65.916 60.2579 66.0172 60.5772C66.1186 60.8963 65.9419 61.2373 65.6226 61.3386L63.1717 62.1166L65.7079 63.5808C65.9978 63.7482 66.0972 64.119 65.9298 64.4091C65.8175 64.6036 65.6138 64.7124 65.4041 64.7124C65.3012 64.7124 65.197 64.6863 65.1015 64.631L62.5654 63.1669L63.117 65.6782C63.1888 66.0054 62.982 66.3287 62.6549 66.4005C62.6109 66.4101 62.5671 66.4147 62.5241 66.4147C62.2455 66.4147 61.9946 66.2216 61.9324 65.9384L61.1433 62.3457L57.9714 60.5144C58.6931 61.9843 59.0988 63.6374 59.0988 65.3856C59.0988 68.9603 57.4035 72.1373 54.7746 74.1619C73.7093 72.2832 70.9775 52.9373 65.8367 45.6215ZM57.2629 59.2796C57.4528 58.9181 57.5617 58.5078 57.5617 58.0717C57.5617 56.6337 56.3918 55.4638 54.9539 55.4638C54.4672 55.4638 54.0128 55.6003 53.6224 55.8334C55.0828 56.6907 56.3298 57.8717 57.2629 59.2796Z" fill="#FF0000"/>
<path d="M48.0256 55.5592C42.5986 55.5592 38.1991 59.9587 38.1991 65.3856C38.1991 70.8127 42.5986 75.212 48.0254 75.212C53.4523 75.212 57.852 70.8125 57.852 65.3856C57.852 59.9587 53.4525 55.5592 48.0256 55.5592ZM51.2042 71.924C49.8164 72.3834 48.4169 72.5518 47.5433 71.5899C47.5433 71.5899 47.2021 71.189 47.6652 71.0024C48.1283 70.8156 48.7164 70.114 48.6055 69.1716C48.5682 68.8548 48.4759 68.5452 48.3701 68.2723C49.5557 68.2262 50.5326 67.369 50.7572 66.2379C51.4905 66.7711 52.5578 67.6583 53.0712 68.6216C53.8956 70.1681 52.592 71.4647 51.2042 71.924ZM53.7576 67.7706C53.7576 67.7706 53.2709 67.9713 53.2365 67.473C53.2019 66.9748 52.7164 66.1987 51.7858 66.0131C51.4503 65.946 51.1034 65.9418 50.7954 65.9631C50.8018 65.8898 50.8066 65.8161 50.8066 65.741C50.8066 64.699 50.1776 63.8047 49.2792 63.4145C49.9383 63.8319 50.3772 64.5658 50.3772 65.4035C50.3772 66.7041 49.323 67.7583 48.0224 67.7583C46.9322 67.7583 46.0179 67.0166 45.7495 66.0111C45.8775 67.2196 46.8544 68.1732 48.0727 68.2675C47.7916 69.1296 47.2784 70.4152 46.5223 71.1997C45.3059 72.4618 43.6701 71.6225 42.8044 70.4446C41.9386 69.2667 41.3459 67.9878 41.9909 66.8596C41.9909 66.8596 42.2666 66.4113 42.5874 66.7939C42.9081 67.1766 43.7571 67.5191 44.6192 67.1224C45.0636 66.9179 45.454 66.5954 45.7285 66.3306C44.8857 66.3554 43.1905 66.3247 42.046 65.7679C40.4698 65.001 40.7625 63.186 41.6153 61.9987C42.468 60.8114 43.5011 59.8524 44.7735 60.1173C44.7735 60.1173 45.2852 60.2412 45.0202 60.6643C44.7553 61.0877 44.6921 62.0008 45.3357 62.6982C45.6677 63.0578 46.0949 63.3293 46.4316 63.5086C46.1475 62.7147 45.6531 61.0931 45.829 59.8324C46.0711 58.0965 47.8878 57.8139 49.2805 58.258C50.6733 58.7021 51.9046 59.3883 52.0459 60.6801C52.0459 60.6801 52.0862 61.2048 51.6018 61.0838C51.1174 60.9627 50.2292 61.1848 49.765 62.0124C49.5255 62.4392 49.3994 62.9293 49.3328 63.3049C50.0002 62.7894 51.3897 61.8179 52.6428 61.5957C54.3685 61.2897 55.1987 62.9301 55.2068 64.3918C55.2147 65.8541 54.9424 67.2371 53.7576 67.7706Z" fill="#01446A"/>
</g>
<defs>
<clipPath id="clip0_29_4">
<rect width="96" height="96" fill="white"/>
</clipPath>
</defs>
</svg>
